#!OML:ASF F:\VICON\USERDATA\INSTALL\rory3\rory3.ASF
:FULLY-SPECIFIED
:DEGREES
2798
root 0.334874 13.5973 -6.14595 -0.917523 -21.6513 8.67912
lowerback 25.6056 -0.417094 -0.911373
upperback 5.59553 -0.445277 4.52711
thorax -7.96143 -0.206034 5.70634
lowerneck -21.6246 0.485536 -7.64194
upperneck 14.4638 2.62973 1.85298
head 7.88839 1.00297 2.18745
rclavicle 1.82882e-014 4.77083e-015
rhumerus -11.192 -3.27565 -75.0068
rradius 134.216
rwrist -14.0501
rhand -16.1886 23.0843
rfingers 7.12502
rthumb 10.0182 -6.65723
lclavicle 1.82882e-014 4.77083e-015
lhumerus 2.1754 7.33384 85.1122
lradius 131.192
lwrist 1.01115
lhand -10.5998 5.45759
lfingers 7.12502
lthumb 15.406 34.8635
rfemur -52.6791 -6.30929 -12.4965
rtibia 79.7724
rfoot -21.1301 13.2349
rtoes -29.16
lfemur -34.1012 13.4136 -4.01332
ltibia 86.4778
lfoot -34.5161 -9.90603
ltoes -42.7041
2799
root 0.31508 13.6914 -6.10274 -1.05657 -22.2144 8.86267
lowerback 25.6194 -0.499526 -0.835163
upperback 5.46042 -0.50524 4.77579
thorax -8.11115 -0.229432 5.9678
lowerneck -21.5522 0.704852 -7.62429
upperneck 14.7256 2.96068 1.64263
head 7.95233 1.1311 2.15799
rclavicle 1.59028e-015 5.88403e-014
rhumerus -12.4431 -4.13549 -74.2614
rradius 133.9
rwrist -14.7149
rhand -15.8964 23.1742
rfingers 7.12502
rthumb 10.3001 -6.55355
lclavicle 1.59028e-015 5.88403e-014
lhumerus 1.27966 7.8712 85.0721
lradius 131.563
lwrist 1.10687
lhand -10.5529 5.64723
lfingers 7.12502
lthumb 15.4512 35.0497
rfemur -52.2585 -5.78241 -12.4789
rtibia 78.8983
rfoot -20.801 13.3299
rtoes -28.3504
lfemur -33.2205 13.6242 -4.29504
ltibia 85.5809
lfoot -33.8816 -9.84562
ltoes -42.306
2800
root 0.295163 13.7904 -6.05972 -1.11744 -22.7829 9.03701
lowerback 25.4991 -0.56356 -0.708904
upperback 5.35185 -0.540076 4.93112
thorax -8.16718 -0.244923 6.08027
lowerneck -21.6324 0.894639 -7.37961
upperneck 14.9721 3.21706 1.32887
head 8.04672 1.22569 2.05018
rclavicle -7.95139e-014 6.04305e-014
rhumerus -13.783 -5.15353 -73.5876
rradius 133.538
rwrist -15.4822
rhand -15.7547 23.3315
rfingers 7.12502
rthumb 10.4368 -6.38948
lclavicle -7.95139e-014 6.04305e-014
lhumerus 0.512648 8.25687 84.926
lradius 131.88
lwrist 1.01856
lhand -10.6585 5.65183
lfingers 7.12502
lthumb 15.3495 35.0621
rfemur -51.8712 -5.24282 -12.4565
rtibia 77.9531
rfoot -20.4215 13.4105
rtoes -27.444
lfemur -32.4093 13.8585 -4.59688
ltibia 84.6626
lfoot -33.2723 -9.66811
ltoes -41.901
2801
root 0.273623 13.8896 -6.02141 -1.21913 -23.353 9.22259
lowerback 25.3762 -0.616278 -0.601206
upperback 5.28971 -0.572275 5.03976
thorax -8.17039 -0.261428 6.14792
lowerneck -21.5316 1.06894 -7.19108
upperneck 14.9278 3.44468 1.03303
head 8.01408 1.3144 1.94666
rclavicle 1.43125e-014 1.59028e-014
rhumerus -15.1473 -6.21393 -72.8788
rradius 133.168
rwrist -16.3554
rhand -15.6544 23.3279
rfingers 7.12502
rthumb 10.5335 -6.3882
lclavicle 1.43125e-014 1.59028e-014
lhumerus -0.0749801 8.5952 84.7383
lradius 132.163
lwrist 0.812811
lhand -10.8307 5.55825
lfingers 7.12502
lthumb 15.1836 34.9812
rfemur -51.4527 -4.60863 -12.4491
rtibia 76.9498
rfoot -20.0352 13.4204
rtoes -26.5386
lfemur -31.5698 14.1393 -4.90514
ltibia 83.6897
lfoot -32.6754 -9.40736
ltoes -42.0298
2802
root 0.252324 13.9985 -5.98284 -1.32958 -23.8434 9.38314
lowerback 25.2286 -0.726208 -0.471741
upperback 5.22636 -0.675444 5.12584
thorax -8.15492 -0.312745 6.19841
lowerneck -21.3587 1.30702 -6.98193
upperneck 14.841 3.76164 0.654794
head 7.95498 1.43971 1.8216
rclavicle -5.88403e-014 3.18055e-015
rhumerus -16.5129 -7.25005 -72.191
rradius 132.736
rwrist -17.1886
rhand -15.3509 23.2554
rfingers 7.12502
rthumb 10.8263 -6.44556
lclavicle -5.88403e-014 3.18055e-015
lhumerus -0.715103 9.04966 84.5255
lradius 132.488
lwrist 0.69386
lhand -10.8202 5.51166
lfingers 7.12502
lthumb 15.1937 34.9338
rfemur -50.8934 -4.00145 -12.4295
rtibia 75.8706
rfoot -19.689 13.3871
rtoes -25.3408
lfemur -30.7172 14.2921 -5.20349
ltibia 82.6447
lfoot -31.4717 -9.88743
ltoes -41.2603
2803
root 0.231188 14.1134 -5.93912 -1.38406 -24.3999 9.69913
lowerback 24.7736 -0.749812 -0.560191
upperback 5.2141 -0.734681 5.18963
thorax -7.92668 -0.344452 6.32066
lowerneck -21.3385 1.52399 -6.79369
upperneck 14.8578 4.07781 0.246892
head 7.9592 1.55643 1.69386
rclavicle -4.13472e-014 -5.08889e-014
rhumerus -17.7486 -8.45027 -71.4358
rradius 132.159
rwrist -17.9781
rhand -14.6214 23.1534
rfingers 7.12502
rthumb 11.5298 -6.50945
lclavicle -4.13472e-014 -5.08889e-014
lhumerus -1.2427 9.4869 84.434
lradius 132.821
lwrist 0.466323
lhand -10.4074 5.49999
lfingers 7.12502
lthumb 15.5913 34.8916
rfemur -50.4224 -3.45839 -12.5674
rtibia 74.7417
rfoot -19.3421 13.3882
rtoes -24.6649
lfemur -29.9471 14.5322 -5.71576
ltibia 81.5952
lfoot -30.2956 -10.1961
ltoes -40.1328
